<?xml version="1.0"?>
<svg xmlns="http://www.w3.org/2000/svg" height="512px" viewBox="0 0 512 512" width="512px"><path d="m512 136v-4.128906l-56.84375-131.871094h-398.359375l-56.796875 132.90625v4.09375c0 17.894531 7.058594 34.605469 19.875 47.046875 5.902344 5.726563 12.722656 10.230469 20.125 13.417969v154.535156h-40v120h40v40h40v-40h352v40h40v-40h40v-120h-40v-154.703125c23.53125-10.402344 40-33.957031 40-61.296875zm-428.796875-96h345.640625l42.921875 99.578125c-1.757813 13.203125-13.089844 23.421875-26.765625 23.421875-14.886719 0-27-12.113281-27-27v-21h-40v21c0 14.886719-12.113281 27-27 27s-27-12.113281-27-27v-21h-40v20c0 15.4375-12.5625 28-28 28s-28-12.5625-28-28v-20h-40v21c0 14.886719-12.113281 27-27 27s-27-12.113281-27-27v-21h-40v21c0 14.886719-12.113281 27-27 27-13.890625 0-25.019531-9.613281-26.761719-22.460938zm388.796875 392h-432v-40h432zm-100-80h-292v-150.273438c13.097656-2.585937 24.839844-8.996093 34-18.023437 12.101562 11.929687 28.707031 19.296875 47 19.296875 18.441406 0 35.167969-7.488281 47.296875-19.585938 12.28125 12.105469 29.132813 19.585938 47.703125 19.585938s35.421875-7.480469 47.703125-19.585938c12.128906 12.097657 28.855469 19.585938 47.296875 19.585938 18.292969 0 34.898438-7.367188 47-19.296875 9.160156 9.027344 20.902344 15.4375 34 18.023437v150.273438zm-183 0c-11.046875 0-20-8.953125-20-20s8.953125-20 20-20 20 8.953125 20 20-8.953125 20-20 20zm-50 0c-11.046875 0-20-8.953125-20-20s8.953125-20 20-20 20 8.953125 20 20-8.953125 20-20 20zm100 0c-11.046875 0-20-8.953125-20-20s8.953125-20 20-20 20 8.953125 20 20-8.953125 20-20 20zm-5-61c0 11.046875-8.953125 20-20 20s-20-8.953125-20-20 8.953125-20 20-20 20 8.953125 20 20zm-51 0c0 11.046875-8.953125 20-20 20s-20-8.953125-20-20 8.953125-20 20-20 20 8.953125 20 20zm139 61c-11.046875 0-20-8.953125-20-20s8.953125-20 20-20 20 8.953125 20 20-8.953125 20-20 20zm50 0c-11.046875 0-20-8.953125-20-20s8.953125-20 20-20 20 8.953125 20 20-8.953125 20-20 20zm-5-61c0 11.046875-8.953125 20-20 20s-20-8.953125-20-20 8.953125-20 20-20 20 8.953125 20 20zm-178-21c-11.046875 0-20-8.953125-20-20s8.953125-20 20-20 20 8.953125 20 20-8.953125 20-20 20zm0 0" fill="#f8ee41"/></svg>
