<?xml version="1.0"?>
<svg xmlns="http://www.w3.org/2000/svg" height="512px" viewBox="-47 -19 634 634.66535" width="512px"><path d="m419.753906 384.550781c0-5.816406-4.148437-10.800781-9.246094-10.800781h-32.808593c-5.097657 0-9.195313 4.984375-9.195313 10.800781v.449219h51.25zm0 0" fill="#f8ee41"/><path d="m-1.496094 314.785156v220.214844h107.5v-235h-93.027344c-3.902343-.023438-7.640624 1.539062-10.371093 4.324219-2.722657 2.785156-4.207031 6.5625-4.101563 10.460937zm37.4375 23.964844h34.003906c5.523438 0 10 4.476562 10 10s-4.476562 10-10 10h-34.003906c-5.523437 0-10-4.476562-10-10s4.476563-10 10-10zm0 61.25h34.003906c5.523438 0 10 4.476562 10 10s-4.476562 10-10 10h-34.003906c-5.523437 0-10-4.476562-10-10s4.476563-10 10-10zm0 60h34.003906c5.523438 0 10 4.476562 10 10 0 5.519531-4.476562 10-10 10h-34.003906c-5.523437 0-10-4.480469-10-10 0-5.523438 4.476563-10 10-10zm0 0" fill="#f8ee41"/><path d="m224.753906 452.5v-38.859375c.101563-5.566406 4.652344-10.011719 10.21875-10 1.375 0 2.730469.253906 4.011719.753906 8.683594-28.847656 24.519531-54.371093 47.019531-74.105469v-38.078124c0-5.523438 4.476563-10 10-10 5.523438 0 10 4.476562 10 10v22.589843c11.332032-7.398437 23.5-13.429687 36.25-17.964843v-184.835938c-.019531-3.925781-1.621094-7.675781-4.441406-10.402344-2.824219-2.730468-6.621094-4.207031-10.546875-4.097656h-186.789063c-3.867187-.089844-7.605468 1.410156-10.339843 4.148438-2.734375 2.742187-4.226563 6.480468-4.132813 10.351562v423h129.195313c-13.488281-22.140625-21.398438-47.222656-23.046875-73.089844-4.292969-1.128906-7.316406-4.972656-7.398438-9.410156zm61.25-281.714844c0-5.523437 4.476563-10 10-10 5.523438 0 10 4.476563 10 10v38.859375c0 5.519531-4.476562 10-10 10-5.523437 0-10-4.480469-10-10zm-61.25 0c0-5.523437 4.476563-10 10-10 5.523438 0 10 4.476563 10 10v38.859375c0 5.519531-4.476562 10-10 10-5.523437 0-10-4.480469-10-10zm0 121.425782c0-5.523438 4.476563-10 10-10 5.523438 0 10 4.476562 10 10v38.859374c0 5.519532-4.476562 10-10 10-5.523437 0-10-4.480468-10-10zm-40 160.289062c0 5.523438-4.476562 10-10 10-5.523437 0-10-4.476562-10-10v-38.859375c0-5.519531 4.476563-10 10-10 5.523438 0 10 4.480469 10 10zm0-121.429688c0 5.519532-4.476562 10-10 10-5.523437 0-10-4.480468-10-10v-38.859374c0-5.523438 4.476563-10 10-10 5.523438 0 10 4.476562 10 10zm0-121.425781c0 5.519531-4.476562 10-10 10-5.523437 0-10-4.480469-10-10v-38.859375c0-5.523437 4.476563-10 10-10 5.523438 0 10 4.476563 10 10zm0 0" fill="#f8ee41"/><path d="m397.695312 200h-35.441406v91.332031c10.882813-2.242187 21.964844-3.378906 33.070313-3.398437 30.9375 0 60.679687 8.636718 84.429687 23.625v-29.558594c.054688-3.890625-1.484375-7.636719-4.25-10.371094s-6.527344-4.226562-10.417968-4.128906h-42.394532c-5.699218-.199219-10.269531-4.796875-10.4375-10.5v-41.785156c.101563-3.957032-1.375-7.785156-4.109375-10.640625s-6.496093-4.5-10.449219-4.574219zm0 0" fill="#f8ee41"/><path d="m395.507812 307.933594c-79.273437-.003906-143.542968 64.257812-143.542968 143.53125-.003906 79.269531 64.257812 143.535156 143.53125 143.535156 79.273437 0 143.535156-64.265625 143.535156-143.535156-.089844-79.230469-64.296875-143.4375-143.523438-143.53125zm109.246094 138.941406c0 5.523438-4.210937 10.625-9.730468 10.625h-1.519532v52.054688c0 16.835937-13.023437 30.445312-29.144531 30.445312h-137.71875c-16.128906 0-29.375-13.609375-29.375-30.445312v-52.054688h-1.285156c-5.523438 0-9.964844-5.097656-9.964844-10.625v-31.523438c-.011719-16.835937 13.074219-30.351562 29.199219-30.351562h33.289062v-.449219c0-16.839843 13.070313-30.800781 29.195313-30.800781h32.808593c16.121094 0 29.246094 13.960938 29.246094 30.800781v.449219h36.03125c16.121094 0 28.96875 13.515625 28.96875 30.351562zm0 0" fill="#f8ee41"/><path d="m475.785156 405h-160.570312c-5.097656 0-9.210938 4.539062-9.210938 10.351562v22.148438h56.25v-8.125c0-5.523438 3.984375-10.625 9.507813-10.625h44.429687c5.515625 0 9.8125 5.097656 9.8125 10.625v8.125h58.75v-22.148438c0-5.8125-3.871094-10.351562-8.96875-10.351562zm0 0" fill="#f8ee41"/><path d="m426.003906 464.378906c0 5.523438-4.296875 10.625-9.8125 10.625h-44.429687c-5.523438 0-9.507813-5.09375-9.507813-10.625v-6.878906h-45v52.054688c0 5.808593 4.289063 10.445312 9.375 10.445312h137.730469c5.089844 0 9.144531-4.636719 9.144531-10.445312v-52.054688h-47.5zm0 0" fill="#f8ee41"/><path d="m382.253906 438.75h23.75v16.25h-23.75zm0 0" fill="#f8ee41"/><path d="m227.253906 10v76.25h20v-76.25c0-5.523438-4.476562-10-10-10-5.523437 0-10 4.476562-10 10zm0 0" fill="#f8ee41"/></svg>
