<?xml version="1.0"?>
<svg xmlns="http://www.w3.org/2000/svg" xmlns:xlink="http://www.w3.org/1999/xlink" version="1.1" id="Layer_1" x="0px" y="0px" viewBox="0 0 512 512" style="enable-background:new 0 0 512 512;" xml:space="preserve" width="512px" height="512px" class=""><g><g>
	<g>
		<path d="M99.402,120.265c-7.655,3.682-16.251,5.737-25.342,5.737c-4.155,0-8.201-0.442-12.107-1.258v111.034h37.557V122.254    C99.509,121.582,99.471,120.918,99.402,120.265z" data-original="#000000" class="active-path" data-old_color="#a2356a" fill="#a2356a"/>
	</g>
</g><g>
	<g>
		<path d="M61.953,474.523v18.698c0,10.371,8.408,18.778,18.778,18.778c10.371,0,18.778-8.408,18.778-18.778v-18.698H61.953z" data-original="#000000" class="active-path" data-old_color="#a2356a" fill="#a2356a"/>
	</g>
</g><g>
	<g>
		<path d="M458.796,122.196c-6.471,2.461-13.502,3.806-20.855,3.806c-5.807,0-11.411-0.839-16.699-2.401v112.177h37.557V122.254    C458.798,122.234,458.796,122.215,458.796,122.196z" data-original="#000000" class="active-path" data-old_color="#a2356a" fill="#a2356a"/>
	</g>
</g><g>
	<g>
		<path d="M421.241,474.523v18.698c0,10.371,8.408,18.778,18.778,18.778c10.371,0,18.778-8.408,18.778-18.778v-18.698H421.241z" data-original="#000000" class="active-path" data-old_color="#a2356a" fill="#a2356a"/>
	</g>
</g><g>
	<g>
		<path d="M49.954,267.076v182.41h420.842v-182.41H49.954z M384.109,367.117h-0.458c-5.546,20.929-24.642,36.403-47.29,36.403    H184.39c-22.648,0-41.746-15.473-47.29-36.403h-0.458c-6.914,0-12.519-5.605-12.519-12.519c0-6.914,5.605-12.519,12.518-12.519    h0.458c5.545-20.929,24.642-36.403,47.29-36.403h151.97c22.649,0,41.746,15.473,47.292,36.403h0.458    c6.914,0,12.519,5.605,12.519,12.519C396.628,361.512,391.023,367.117,384.109,367.117z" data-original="#000000" class="active-path" data-old_color="#a2356a" fill="#a2356a"/>
	</g>
</g><g>
	<g>
		<path d="M219.804,63.436c1.873,1.984,3.115,4.583,3.369,7.49c1.476,16.844,15.895,30.038,32.826,30.038    c16.933,0,31.352-13.194,32.828-30.038c0.255-2.908,1.496-5.506,3.369-7.49H219.804z" data-original="#000000" class="active-path" data-old_color="#a2356a" fill="#a2356a"/>
	</g>
</g><g>
	<g>
		<path d="M310.774,63.436c1.873,1.984,3.115,4.583,3.369,7.49c1.476,16.844,15.895,30.038,32.826,30.038    c16.931,0,31.35-13.195,32.827-30.039c0.257-2.907,1.497-5.505,3.37-7.489H310.774z" data-original="#000000" class="active-path" data-old_color="#a2356a" fill="#a2356a"/>
	</g>
</g><g>
	<g>
		<path d="M445.081,0H66.919C52.74,0,41.204,11.536,41.204,25.715v12.683h429.592V25.715C470.795,11.536,459.26,0,445.081,0z" data-original="#000000" class="active-path" data-old_color="#a2356a" fill="#a2356a"/>
	</g>
</g><g>
	<g>
		<path d="M128.835,63.436c1.873,1.984,3.113,4.582,3.369,7.49c1.477,16.844,15.897,30.039,32.827,30.039    c16.931,0,31.35-13.195,32.827-30.039c0.254-2.908,1.496-5.506,3.369-7.49H128.835z" data-original="#000000" class="active-path" data-old_color="#a2356a" fill="#a2356a"/>
	</g>
</g><g>
	<g>
		<path d="M401.743,63.436c1.873,1.984,3.115,4.582,3.369,7.49c1.477,16.844,15.895,30.039,32.826,30.039    c16.934-0.001,31.354-13.195,32.828-30.039c0.009-0.096,0.019-0.193,0.029-0.289v-7.201H401.743z" data-original="#000000" class="active-path" data-old_color="#a2356a" fill="#a2356a"/>
	</g>
</g><g>
	<g>
		<path d="M41.204,63.436v7.202c0.01,0.095,0.02,0.192,0.029,0.287c1.477,16.846,15.897,30.039,32.827,30.039    c16.932,0,31.351-13.195,32.827-30.038c0.255-2.908,1.496-5.506,3.369-7.49H41.204z" data-original="#000000" class="active-path" data-old_color="#a2356a" fill="#a2356a"/>
	</g>
</g><g>
	<g>
		<path d="M336.36,330.714H184.39c-13.17,0-23.884,10.714-23.884,23.884s10.715,23.884,23.884,23.884h151.97    c13.17,0,23.884-10.714,23.884-23.884S349.53,330.714,336.36,330.714z" data-original="#000000" class="active-path" data-old_color="#a2356a" fill="#a2356a"/>
	</g>
</g></g> </svg>
